<svg width="122" height="53" viewBox="0 0 122 53" fill="none" xmlns="http://www.w3.org/2000/svg">
  <g clip-path="url(#clip0_119_309)">
    <path
      d="M57.3454 43.4729C56.1249 43.4729 54.9764 42.9281 53.8998 41.8384V43.2119H50.1346V16.7441H53.8998V25.8266C55.0001 24.6522 56.2777 24.0649 57.7318 24.0649C59.5863 24.0649 60.8235 24.8006 61.4443 26.2703C62.0642 27.7408 62.3751 29.3688 62.3751 31.1541V35.728C62.3751 40.8915 60.6979 43.4729 57.3454 43.4729ZM56.5727 40.7292C57.4385 40.7292 57.9952 40.3214 58.2411 39.5058C58.4887 38.6886 58.6134 37.4293 58.6134 35.728V31.1541C58.6134 29.7603 58.4711 28.6877 58.1884 27.9374C57.9074 27.1854 57.3217 26.8086 56.4322 26.8086C55.6103 26.8086 54.7656 27.1242 53.8998 27.7547V39.8777C54.6725 40.4454 55.5629 40.7292 56.5727 40.7292Z"
      fill="#ffff"/>
    <path
      d="M69.4481 43.4729C68.6728 43.4729 67.9738 43.2657 67.3513 42.853C66.7305 42.4403 66.2449 41.8963 65.8936 41.2218C65.5424 40.5457 65.3668 39.8369 65.3668 39.0948C65.3668 37.6136 65.7057 36.4114 66.3854 35.4866C67.0668 34.56 67.9343 33.8252 68.988 33.2812C70.0435 32.7355 71.5099 32.1132 73.3854 31.4151V30.0775C73.3854 28.8362 73.2502 27.9594 72.9815 27.448C72.7119 26.935 72.1667 26.6781 71.3448 26.6781C69.9135 26.6781 69.1987 27.5712 69.1987 29.3565V30.3059L65.4722 30.1754C65.5187 28.0834 66.0341 26.5427 67.0176 25.5526C68.0028 24.5608 69.5289 24.0649 71.5941 24.0649C73.54 24.0649 74.9519 24.5608 75.83 25.5526C76.7099 26.5427 77.1507 28.0402 77.1507 30.0449V38.6706C77.1507 40.0865 77.2674 41.6003 77.5019 43.2119H74.0563C73.7964 41.9705 73.6313 41.0448 73.5611 40.4356C73.2801 41.2838 72.7927 42.0032 72.0999 42.592C71.4089 43.1793 70.5246 43.4729 69.4481 43.4729ZM70.9233 40.4682C71.4168 40.4682 71.898 40.2888 72.3669 39.9299C72.8349 39.5694 73.1747 39.2252 73.3854 38.899V33.5389C72.3783 34.0633 71.5985 34.516 71.0462 34.8961C70.4957 35.2769 70.0382 35.7182 69.6729 36.2206C69.3094 36.7214 69.1285 37.3192 69.1285 38.0149C69.1285 38.8003 69.2804 39.4063 69.5851 39.8321C69.8915 40.2562 70.3376 40.4682 70.9233 40.4682Z"
      fill="#ffff"/>
    <path
      d="M86.3299 43.4729C84.7353 43.4729 83.5034 43.1744 82.635 42.5757C81.7683 41.9754 81.1774 41.137 80.8612 40.0604C80.5451 38.9822 80.3871 37.6136 80.3871 35.9563V31.6108C80.3871 29.9128 80.5451 28.5181 80.8612 27.4285C81.1774 26.3388 81.7683 25.5061 82.635 24.9295C83.5034 24.3537 84.7353 24.0649 86.3299 24.0649C87.784 24.0649 88.915 24.2827 89.7229 24.7174C90.5324 25.1529 91.0962 25.8005 91.4123 26.6618C91.7301 27.5231 91.89 28.6404 91.89 30.0123V31.1215H88.476V29.9796C88.476 28.7383 88.3293 27.8721 88.0369 27.3828C87.7437 26.8918 87.187 26.6455 86.3651 26.6455C85.7328 26.6455 85.264 26.776 84.9601 27.037C84.6554 27.298 84.4438 27.7237 84.3244 28.3126C84.2067 28.8998 84.1488 29.7603 84.1488 30.8931V36.8404C84.1488 37.9301 84.219 38.7644 84.3595 39.3427C84.5018 39.9193 84.7318 40.3214 85.0479 40.5498C85.3641 40.7781 85.8145 40.8923 86.4002 40.8923C87.2686 40.8923 87.8315 40.6264 88.0896 40.093C88.3469 39.558 88.476 38.7351 88.476 37.6234V36.0901H91.89V37.3951C91.89 39.4438 91.4843 40.9698 90.6747 41.9722C89.8669 42.9729 88.418 43.4729 86.3299 43.4729Z"
      fill="#ffff"/>
    <path
      d="M98.8908 43.4728C98.1154 43.4728 97.4165 43.2657 96.7939 42.853C96.1731 42.4403 95.6875 41.8963 95.3363 41.2218C94.9851 40.5456 94.8094 39.8369 94.8094 39.0947C94.8094 37.6136 95.1484 36.4114 95.828 35.4865C96.5094 34.56 97.377 33.8251 98.4307 33.2811C99.4861 32.7355 100.953 32.1132 102.828 31.415V30.0775C102.828 28.8361 102.693 27.9594 102.424 27.448C102.155 26.935 101.609 26.6781 100.787 26.6781C99.3562 26.6781 98.6414 27.5711 98.6414 29.3565V30.3058L94.9148 30.1753C94.9614 28.0833 95.4768 26.5427 96.4602 25.5525C97.4455 24.5608 98.9716 24.0649 101.037 24.0649C102.983 24.0649 104.395 24.5608 105.273 25.5525C106.153 26.5427 106.593 28.0401 106.593 30.0448V38.6706C106.593 40.0865 106.71 41.6002 106.945 43.2118H103.499C103.239 41.9705 103.074 41.0448 103.004 40.4355C102.723 41.2838 102.235 42.0031 101.543 42.592C100.852 43.1792 99.9673 43.4728 98.8908 43.4728ZM100.366 40.4682C100.859 40.4682 101.341 40.2887 101.81 39.9299C102.278 39.5694 102.617 39.2252 102.828 38.899V33.5389C101.821 34.0633 101.041 34.5159 100.489 34.896C99.9383 35.2769 99.4808 35.7181 99.1156 36.2205C98.752 36.7213 98.5712 37.3191 98.5712 38.0148C98.5712 38.8003 98.7231 39.4063 99.0278 39.832C99.3342 40.2561 99.7803 40.4682 100.366 40.4682ZM102.126 16.2874H105.891L101.95 22.7567H100.053L102.126 16.2874Z"
      fill="#ffff"/>
    <path
      d="M110.216 24.3259H113.981V26.1888C115.599 24.7729 117.252 24.0649 118.941 24.0649C120.044 24.0649 120.829 24.436 121.298 25.1774C121.766 25.9172 122 26.8314 122 27.9211V43.2119H118.238V28.9324C118.238 28.2131 118.12 27.6788 117.884 27.3306C117.649 26.9831 117.228 26.8086 116.619 26.8086C115.868 26.8086 114.988 27.2017 113.981 27.9863V43.2119H110.216V24.3259Z"
      fill="#ffff"/>
    <path
      d="M10.3509 6.03781C9.7605 6.82313 8.86589 7.45099 8.17521 8.16879C7.17762 9.20554 6.32088 10.3935 5.65496 11.6415C4.75921 13.3202 4.18291 15.1272 3.64827 16.9295C3.41042 17.7313 3.33127 18.6949 2.95097 19.4468C2.52718 20.2847 1.00268 20.189 0.639474 21.1915C0.228107 22.327 1.51245 22.4419 2.34908 22.2964C0.912985 29.4385 0.950236 36.5765 0.237047 43.7641C0.0459434 45.6901 -0.210562 47.6172 0.296123 49.5256C0.509378 50.3289 0.818454 51.17 1.59109 51.6481C3.55464 52.863 6.34269 51.1564 7.99245 50.1822C8.60445 49.8208 9.27691 49.3861 10.014 49.3034C11.1731 49.1734 12.1843 50.0151 13.0462 50.6206C14.5252 51.6595 16.2411 52.9525 18.1842 52.9972C20.1912 53.0434 21.7111 52.5224 23.3222 51.3902C24.4442 50.6018 25.8043 49.1833 27.281 49.0669C28.6493 48.9591 29.6595 50.0858 30.5659 50.854C31.6105 51.7392 32.7061 52.3373 34.1036 52.5671C35.3972 52.7798 36.5197 52.2464 37.557 51.5757C38.1408 51.1981 38.8098 50.5419 39.5785 50.5736C40.9777 50.6314 42.506 52.6361 43.9392 51.2452C44.2379 50.9552 44.2302 50.5287 44.3269 50.157C44.6154 49.0471 44.548 47.8973 44.548 46.7632C44.548 42.6443 44.4909 38.4859 44.2986 34.372C44.2262 32.8209 44.1662 31.2665 44.1256 29.7154C44.1112 29.1622 43.8687 28.4399 44.0235 27.9001C44.2076 27.2581 44.9488 26.6721 45.2164 26.0059C45.9859 24.09 46.2217 21.6417 45.9558 19.613C45.8424 18.7479 45.6422 17.4518 44.6322 17.1252C44.0641 16.9415 42.6478 17.2354 42.3287 16.681C41.9116 15.9561 41.801 14.9524 41.5155 14.1671C40.9812 12.6978 40.3161 11.2837 39.5567 9.90514C37.7778 6.67574 34.9761 3.72562 31.4082 2.19483C29.4971 1.37488 27.3972 1.00071 25.3437 0.640195C20.4098 -0.226013 14.946 -0.324739 10.0982 1.04341C8.99778 1.35396 7.62868 1.76603 6.9715 2.72295C5.6034 4.71501 8.81006 5.82538 10.3509 6.03781ZM41.0104 16.8506L25.6806 17.087L13.9727 17.2381L10.014 17.4377L4.28636 19.1394C4.37842 18.0556 4.81998 16.9412 5.15225 15.9035C6.33199 12.219 8.43391 8.5519 11.9512 6.36167C14.427 4.81999 17.4172 4.07223 20.2899 3.5122C19.9031 2.85477 18.175 3.30084 17.5104 3.40087C16.3967 3.5685 15.2737 3.7782 14.2254 4.17929C13.4176 4.48835 12.4923 5.28164 11.6143 5.34776C11.1581 5.38212 10.545 5.16987 10.0982 5.07213C9.45394 4.93118 7.90725 4.6277 7.73054 3.90652C7.64736 3.56706 8.07641 3.27099 8.32937 3.10089C9.03812 2.62428 9.94256 2.35233 10.772 2.12504C14.2157 1.18139 18.074 0.91639 21.6376 1.23676C24.9924 1.53836 28.7585 2.09834 31.7451 3.61548C36.7374 6.15144 39.8898 11.777 41.0104 16.8506ZM39.7466 18.4712C40.7015 18.2357 39.9282 19.5199 39.7341 19.7708C38.5195 21.3414 37.2634 22.9103 35.9734 24.4274C35.6533 24.8039 35.0212 25.8152 34.4527 25.8482C34.1533 25.8657 34.2359 25.5323 34.3021 25.3742C34.5018 24.8971 34.856 24.4568 35.1577 24.0328C36.1516 22.6359 37.2156 21.2762 38.2838 19.9287C38.6479 19.4695 39.1151 18.6269 39.7466 18.4712ZM35.0301 26.8741C35.0766 26.068 35.8509 25.362 36.3463 24.7431C37.5256 23.2698 38.7016 21.7941 39.8839 20.3233C40.2805 19.8298 40.646 19.2691 41.1092 18.8284C41.2506 18.6939 41.512 18.4659 41.7163 18.6392C42.1778 19.0305 40.7338 20.4639 40.4805 20.7968C39.2895 22.3621 38.0297 23.8737 36.7483 25.3745C36.3043 25.8946 35.7777 26.766 35.0301 26.8741ZM22.0588 18.8237C22.2803 19.5881 21.3372 20.2715 20.8567 20.7968C19.7472 22.0098 18.6106 23.2017 17.5171 24.4274C17.0132 24.9922 16.4612 25.8466 15.7416 26.1637L15.6573 26.0848C15.8827 25.3673 16.4821 24.707 16.952 24.1117C17.9121 22.8954 18.947 21.7722 20.0132 20.639C20.5792 20.0375 21.2261 19.0889 22.0588 18.8237ZM20.0322 18.9608C20.7528 18.9621 19.8783 20.0652 19.7282 20.2444C18.7427 21.4207 17.6825 22.5663 16.6612 23.7171C16.4186 23.9906 15.8793 24.7904 15.4315 24.7292C14.8756 24.6533 15.907 23.4052 16.0302 23.2435C16.8967 22.1074 17.8397 21.0161 18.7739 19.9287C19.0525 19.6043 19.5258 18.9599 20.0322 18.9608ZM9.42435 19.4551C9.7457 21.8377 9.96689 24.2345 11.5234 26.2427C14.1227 29.5962 20.7136 30.2193 24.5014 28.433C26.0157 27.7189 27.1643 26.522 28.0952 25.2166C28.4886 24.665 29.0492 23.6373 29.8921 23.6788C30.5213 23.7097 30.9649 24.2805 31.2502 24.7431C31.9329 25.8498 32.2454 27.0225 33.3455 27.8742C35.8285 29.7964 39.9697 29.2827 42.7792 28.5315C42.8006 35.8137 43.7293 43.1931 43.1161 50.4727C41.7705 50.6964 40.804 49.3449 39.41 49.4605C37.1649 49.6466 36.137 51.9946 33.6824 51.3063C31.3764 50.6597 30.2411 48.2583 27.7021 48.0395C24.3958 47.7546 22.5374 51.8203 19.2792 52.0441C15.7525 52.2863 14.1164 48.914 10.9405 48.3784C8.71773 48.0035 6.8074 49.9441 4.87596 50.6621C4.07798 50.9587 2.77457 51.3351 2.02776 50.7444C1.35758 50.2143 1.25188 49.1016 1.13444 48.3417C0.780739 46.053 1.09104 43.6811 1.32403 41.3963C1.81777 36.5546 1.95679 31.7042 2.67502 26.8741C2.86368 25.6053 3.1044 24.3474 3.33878 23.0857C3.42526 22.6201 3.43453 21.8632 3.7232 21.4676C3.99122 21.1003 4.79045 20.9625 5.21288 20.812C6.55322 20.3344 7.99705 19.6353 9.42435 19.4551ZM30.9867 28.3579C30.2232 28.5718 29.9649 29.2245 29.0498 29.1555C28.6114 29.1225 27.5675 28.3319 27.2479 28.538C26.8196 28.8143 27.5704 29.4312 27.7864 29.5733C28.4722 30.0245 29.3827 30.0318 30.1448 29.7575C30.5684 29.605 31.0925 29.3708 31.3456 29.0019C31.5426 28.7148 31.4494 28.2283 30.9867 28.3579Z"
      fill="#ffff"/>
  </g>
  <defs>
    <clipPath id="clip0_119_309">
      <rect width="122" height="53" fill="white"/>
    </clipPath>
  </defs>
</svg>
