<svg width="143" height="165" viewBox="0 0 143 165" fill="none" xmlns="http://www.w3.org/2000/svg">
<path d="M32.1353 18.7969C30.3024 21.2418 27.5251 23.1965 25.3808 25.4311C22.2837 28.6588 19.6239 32.3572 17.5565 36.2424C14.7755 41.4685 12.9864 47.0942 11.3265 52.705C10.5881 55.2011 10.3424 58.2012 9.16171 60.542C7.84601 63.1505 3.1131 62.8524 1.98549 65.9736C0.708367 69.5086 4.69571 69.8665 7.29311 69.4133C2.83462 91.6481 2.95027 113.87 0.736121 136.247C0.142824 142.243 -0.653516 148.242 0.919526 154.184C1.58159 156.684 2.54115 159.303 4.93985 160.791C11.0359 164.573 19.6916 159.261 24.8134 156.228C26.7134 155.102 28.8011 153.749 31.0893 153.492C34.6881 153.087 37.8272 155.707 40.5032 157.592C45.0949 160.827 50.4218 164.852 56.4545 164.991C62.6855 165.135 67.404 163.513 72.4058 159.988C75.8892 157.534 80.1117 153.118 84.6962 152.756C88.9442 152.42 92.0806 155.927 94.8946 158.319C98.1374 161.075 101.539 162.937 105.877 163.652C109.894 164.315 113.379 162.654 116.599 160.566C118.411 159.39 120.488 157.347 122.875 157.446C127.219 157.626 131.964 163.867 136.413 159.537C137.34 158.634 137.316 157.306 137.616 156.149C138.512 152.694 138.303 149.114 138.303 145.584C138.303 132.76 138.126 119.815 137.529 107.007C137.304 102.178 137.118 97.3392 136.992 92.5102C136.947 90.7881 136.194 88.5394 136.675 86.8588C137.246 84.8601 139.547 83.0359 140.378 80.9618C142.767 74.9973 143.499 67.375 142.674 61.0592C142.322 58.3662 141.7 54.331 138.564 53.3142C136.801 52.7423 132.404 53.6574 131.413 51.9315C130.118 49.6746 129.775 46.5498 128.888 44.1051C127.23 39.5309 125.165 35.1284 122.807 30.8368C117.284 20.783 108.586 11.5986 97.5095 6.83295C91.5764 4.28029 85.0569 3.11541 78.6818 1.99306C63.3642 -0.703625 46.4014 -1.01098 31.3508 3.24834C27.9345 4.21517 23.684 5.498 21.6438 8.47709C17.3964 14.6788 27.3517 18.1356 32.1353 18.7969ZM127.32 52.4593L79.7277 53.1955L43.3797 53.6659L31.0893 54.2872L13.3075 59.5849C13.5933 56.2107 14.9642 52.7414 15.9958 49.5108C19.6584 38.0402 26.1839 26.6238 37.1038 19.8052C44.7901 15.0056 54.0733 12.6777 62.9919 10.9342C61.7908 8.8875 56.4259 10.2762 54.3626 10.5876C50.9049 11.1095 47.4187 11.7623 44.1642 13.011C41.6563 13.9732 38.7834 16.4428 36.0578 16.6487C34.6413 16.7557 32.7379 16.0949 31.3508 15.7906C29.3507 15.3518 24.5489 14.407 24.0003 12.1618C23.742 11.105 25.074 10.1833 25.8594 9.6537C28.0598 8.16991 30.8676 7.3233 33.4428 6.61569C44.1339 3.67792 56.1123 2.85291 67.1759 3.8503C77.5911 4.78923 89.2833 6.53256 98.5555 11.2558C114.054 19.1507 123.841 36.6644 127.32 52.4593ZM123.397 57.5045C126.361 56.7715 123.96 60.7695 123.358 61.5506C119.587 66.4403 115.687 71.3246 111.682 76.0475C110.689 77.2196 108.726 80.3679 106.961 80.4709C106.032 80.5251 106.288 79.4874 106.494 78.9951C107.114 77.5098 108.213 76.1392 109.15 74.819C112.236 70.4702 115.539 66.2371 118.855 62.042C119.986 60.6125 121.436 57.9893 123.397 57.5045ZM108.754 83.6646C108.898 81.155 111.302 78.9571 112.84 77.0304C116.501 72.4436 120.152 67.8494 123.823 63.2706C125.054 61.7343 126.189 59.9888 127.627 58.6167C128.066 58.1979 128.877 57.4882 129.512 58.0276C130.945 59.2458 126.462 63.7085 125.675 64.7448C121.978 69.6178 118.066 74.3239 114.088 78.9961C112.71 80.6153 111.075 83.328 108.754 83.6646ZM68.4834 58.6021C69.171 60.9817 66.2434 63.1095 64.7516 64.7448C61.307 68.521 57.7782 72.2316 54.3835 76.0475C52.8192 77.806 51.1053 80.466 48.8711 81.4532L48.6096 81.2075C49.3092 78.9736 51.1702 76.918 52.6291 75.0647C55.6096 71.2783 58.8226 67.7813 62.1328 64.2534C63.8898 62.3808 65.8983 59.4278 68.4834 58.6021ZM62.1919 59.0289C64.4288 59.033 61.7139 62.4672 61.248 63.0249C58.1884 66.687 54.8968 70.2535 51.7264 73.8361C50.9729 74.6876 49.2988 77.1776 47.9084 76.9872C46.1827 76.7507 49.3846 72.8651 49.7674 72.3619C52.4573 68.825 55.3851 65.4275 58.2852 62.042C59.1502 61.0322 60.6197 59.0261 62.1919 59.0289ZM29.2588 60.5678C30.2565 67.9853 30.9432 75.4471 35.7755 81.6989C43.8451 92.1391 64.3071 94.079 76.0668 88.5179C80.7679 86.2948 84.334 82.5685 87.224 78.5047C88.4454 76.7871 90.1856 73.5879 92.8026 73.7169C94.756 73.8132 96.1332 75.5902 97.019 77.0304C99.1383 80.4759 100.109 84.1267 103.524 86.778C111.233 92.7624 124.089 91.163 132.812 88.8245C132.878 111.496 135.761 134.469 133.858 157.132C129.68 157.828 126.68 153.621 122.352 153.981C115.382 154.56 112.19 161.87 104.57 159.727C97.4107 157.714 93.8861 150.238 86.0036 149.557C75.7389 148.67 69.9695 161.327 59.854 162.024C48.9052 162.778 43.8256 152.279 33.9658 150.612C27.0651 149.445 21.1343 155.486 15.138 157.722C12.6606 158.645 8.61405 159.817 6.29553 157.978C4.21492 156.328 3.88675 152.864 3.52216 150.498C2.42406 143.373 3.3874 135.988 4.11075 128.875C5.64361 113.802 6.0752 98.7018 8.30499 83.6646C8.89072 79.7145 9.63805 75.7986 10.3657 71.8705C10.6342 70.4211 10.663 68.0646 11.5592 66.833C12.3912 65.6896 14.8725 65.2607 16.184 64.7921C20.3452 63.3052 24.8277 61.1289 29.2588 60.5678ZM96.2008 88.2842C93.8305 88.95 93.0287 90.9818 90.1876 90.7672C88.8266 90.6644 85.5858 88.203 84.5935 88.8448C83.2637 89.7048 85.5947 91.6254 86.2654 92.0678C88.3945 93.4725 91.2211 93.4952 93.5871 92.6412C94.9022 92.1665 96.5295 91.4373 97.3152 90.2889C97.9267 89.3952 97.6375 87.8806 96.2008 88.2842Z" fill="#2A7EFF"/>
</svg>
