<svg width="72" height="28" viewBox="0 0 72 28" fill="none" xmlns="http://www.w3.org/2000/svg">
  <path
    d="M7.21081 27.1855C5.99028 27.1855 4.84175 26.6407 3.76522 25.5511V26.9245H0V0.456787H3.76522V9.53927C4.86545 8.36481 6.14306 7.77758 7.59717 7.77758C9.45168 7.77758 10.6889 8.51325 11.3097 9.98296C11.9296 11.4535 12.2405 13.0814 12.2405 14.8668V19.4406C12.2405 24.6042 10.5633 27.1855 7.21081 27.1855ZM6.4381 24.4419C7.30389 24.4419 7.86059 24.0341 8.10646 23.2185C8.35407 22.4012 8.47876 21.142 8.47876 19.4406V14.8668C8.47876 13.4729 8.33651 12.4004 8.05377 11.65C7.77278 10.8981 7.1871 10.5213 6.29761 10.5213C5.47572 10.5213 4.63101 10.8369 3.76522 11.4673V23.5904C4.53793 24.158 5.4283 24.4419 6.4381 24.4419Z"
    fill="#2A7EFF"/>
  <path
    d="M19.3135 27.1855C18.5382 27.1855 17.8392 26.9784 17.2166 26.5657C16.5958 26.153 16.1103 25.609 15.759 24.9345C15.4078 24.2583 15.2322 23.5496 15.2322 22.8074C15.2322 21.3263 15.5711 20.1241 16.2508 19.1992C16.9321 18.2727 17.7997 17.5378 18.8534 16.9938C19.9088 16.4482 21.3752 15.8259 23.2508 15.1277V13.7902C23.2508 12.5488 23.1156 11.6721 22.8469 11.1607C22.5773 10.6477 22.032 10.3908 21.2102 10.3908C19.7789 10.3908 19.0641 11.2838 19.0641 13.0692V14.0185L15.3375 13.888C15.3841 11.796 15.8995 10.2554 16.883 9.26524C17.8682 8.27347 19.3943 7.77759 21.4595 7.77759C23.4054 7.77759 24.8173 8.27347 25.6954 9.26524C26.5752 10.2554 27.016 11.7528 27.016 13.7575V22.3833C27.016 23.7992 27.1328 25.3129 27.3673 26.9245H23.9217C23.6618 25.6832 23.4967 24.7575 23.4264 24.1482C23.1455 24.9965 22.6581 25.7158 21.9653 26.3047C21.2743 26.8919 20.39 27.1855 19.3135 27.1855ZM20.7887 24.1809C21.2822 24.1809 21.7634 24.0014 22.2322 23.6426C22.7003 23.2821 23.0401 22.9379 23.2508 22.6117V17.2516C22.2437 17.776 21.4639 18.2286 20.9116 18.6087C20.3611 18.9896 19.9036 19.4308 19.5383 19.9332C19.1748 20.434 18.9939 21.0318 18.9939 21.7276C18.9939 22.513 19.1458 23.119 19.4505 23.5447C19.7569 23.9688 20.203 24.1809 20.7887 24.1809Z"
    fill="#2A7EFF"/>
  <path
    d="M36.1953 27.1855C34.6007 27.1855 33.3688 26.887 32.5004 26.2884C31.6337 25.6881 31.0427 24.8497 30.7266 23.7731C30.4105 22.6948 30.2525 21.3263 30.2525 19.669V15.3235C30.2525 13.6254 30.4105 12.2307 30.7266 11.1411C31.0427 10.0515 31.6337 9.21875 32.5004 8.64212C33.3688 8.06631 34.6007 7.77759 36.1953 7.77759C37.6494 7.77759 38.7804 7.99535 39.5882 8.43007C40.3978 8.86559 40.9616 9.51318 41.2777 10.3744C41.5955 11.2357 41.7553 12.3531 41.7553 13.7249V14.8341H38.3414V13.6923C38.3414 12.451 38.1947 11.5848 37.9023 11.0954C37.609 10.6044 37.0523 10.3581 36.2305 10.3581C35.5982 10.3581 35.1293 10.4886 34.8255 10.7496C34.5208 11.0106 34.3092 11.4364 34.1898 12.0252C34.0721 12.6124 34.0142 13.4729 34.0142 14.6058V20.5531C34.0142 21.6427 34.0844 22.4771 34.2249 23.0553C34.3672 23.632 34.5972 24.0341 34.9133 24.2624C35.2294 24.4908 35.6799 24.605 36.2656 24.605C37.134 24.605 37.6969 24.3391 37.955 23.8057C38.2123 23.2707 38.3414 22.4477 38.3414 21.3361V19.8027H41.7553V21.1077C41.7553 23.1565 41.3497 24.6825 40.5401 25.6848C39.7322 26.6856 38.2834 27.1855 36.1953 27.1855Z"
    fill="#2A7EFF"/>
  <path
    d="M48.7562 27.1855C47.9808 27.1855 47.2819 26.9783 46.6593 26.5656C46.0385 26.1529 45.5529 25.6089 45.2017 24.9344C44.8505 24.2583 44.6748 23.5495 44.6748 22.8073C44.6748 21.3262 45.0138 20.124 45.6934 19.1991C46.3748 18.2726 47.2423 17.5378 48.296 16.9938C49.3515 16.4481 50.8179 15.8258 52.6935 15.1277V13.7901C52.6935 12.5488 52.5583 11.672 52.2896 11.1606C52.02 10.6476 51.4747 10.3907 50.6528 10.3907C49.2215 10.3907 48.5068 11.2838 48.5068 13.0691V14.0185L44.7802 13.888C44.8267 11.796 45.3422 10.2553 46.3256 9.26518C47.3108 8.27341 48.8369 7.77753 50.9022 7.77753C52.848 7.77753 54.26 8.27341 55.1381 9.26518C56.0179 10.2553 56.4587 11.7527 56.4587 13.7575V22.3832C56.4587 23.7991 56.5755 25.3129 56.8099 26.9245H53.3643C53.1044 25.6831 52.9393 24.7574 52.8691 24.1482C52.5881 24.9964 52.1008 25.7158 51.408 26.3046C50.7169 26.8918 49.8327 27.1855 48.7562 27.1855ZM50.2313 24.1808C50.7248 24.1808 51.206 24.0014 51.6749 23.6425C52.1429 23.282 52.4827 22.9378 52.6935 22.6116V17.2515C51.6863 17.7759 50.9066 18.2286 50.3543 18.6087C49.8037 18.9895 49.3462 19.4308 48.9809 19.9332C48.6174 20.434 48.4365 21.0318 48.4365 21.7275C48.4365 22.5129 48.5884 23.1189 48.8931 23.5446C49.1996 23.9688 49.6457 24.1808 50.2313 24.1808ZM51.991 0H55.7562L51.8154 6.46931H49.9187L51.991 0Z"
    fill="#2A7EFF"/>
  <path
    d="M60.0815 8.03858H63.8468V9.9014C65.4642 8.48553 67.1176 7.77759 68.8062 7.77759C69.909 7.77759 70.694 8.14868 71.1629 8.89006C71.631 9.62981 71.8654 10.5441 71.8654 11.6337V26.9245H68.1037V12.6451C68.1037 11.9257 67.9852 11.3915 67.749 11.0432C67.5145 10.6958 67.093 10.5213 66.4845 10.5213C65.7329 10.5213 64.853 10.9144 63.8468 11.699V26.9245H60.0815V8.03858Z"
    fill="#2A7EFF"/>
</svg>
